<?xml version="1.0" encoding="UTF-8"?>
<svg xmlns="http://www.w3.org/2000/svg" xmlns:xlink="http://www.w3.org/1999/xlink" viewBox="0 0 100 100" width="100px" height="100px">
<g id="surface136415223">
<path style=" stroke:none;fill-rule:nonzero;fill:rgb(80.000001%,80.000001%,80.000001%);fill-opacity:1;" d="M 50 100 C 22.386719 100 0 77.613281 0 50 C 0 22.386719 22.386719 0 50 0 C 77.613281 0 100 22.386719 100 50 C 100 77.613281 77.613281 100 50 100 Z M 50 100 "/>
<path style=" stroke:none;fill-rule:nonzero;fill:rgb(0%,0%,0%);fill-opacity:1;" d="M 49.949219 17.46875 C 49.671875 17.480469 49.402344 17.578125 49.179688 17.746094 L 18.554688 41.644531 C 17.972656 42.097656 17.871094 42.933594 18.324219 43.515625 C 18.777344 44.097656 19.613281 44.199219 20.191406 43.746094 L 22.035156 42.308594 L 22.035156 77.316406 C 22.039062 78.050781 22.632812 78.648438 23.367188 78.648438 L 41.785156 78.648438 C 41.929688 78.671875 42.078125 78.671875 42.222656 78.648438 L 57.765625 78.648438 C 57.910156 78.671875 58.054688 78.671875 58.199219 78.648438 L 76.632812 78.648438 C 77.367188 78.648438 77.960938 78.050781 77.964844 77.316406 L 77.964844 42.308594 L 79.808594 43.746094 C 80.183594 44.039062 80.683594 44.109375 81.125 43.929688 C 81.566406 43.753906 81.878906 43.351562 81.945312 42.878906 C 82.011719 42.410156 81.820312 41.9375 81.445312 41.644531 L 71.304688 33.734375 L 71.304688 24.054688 L 63.316406 24.054688 L 63.316406 27.496094 L 50.820312 17.746094 C 50.570312 17.554688 50.265625 17.457031 49.949219 17.46875 Z M 50 20.488281 L 75.300781 40.230469 L 75.300781 75.984375 L 59.320312 75.984375 L 59.320312 50.6875 L 40.679688 50.6875 L 40.679688 75.984375 L 24.699219 75.984375 L 24.699219 40.230469 Z M 65.980469 26.71875 L 68.640625 26.71875 L 68.640625 31.65625 L 65.980469 29.574219 Z M 43.34375 53.347656 L 56.65625 53.347656 L 56.65625 75.984375 L 43.34375 75.984375 Z M 43.34375 53.347656 "/>
</g>
</svg>
