<?xml version="1.0" encoding="UTF-8"?>
<svg xmlns="http://www.w3.org/2000/svg" xmlns:xlink="http://www.w3.org/1999/xlink" viewBox="0 0 100 100" width="100px" height="100px">
<g id="surface141284000">
<path style=" stroke:none;fill-rule:nonzero;fill:rgb(80.000001%,80.000001%,80.000001%);fill-opacity:1;" d="M 50 100 C 22.386719 100 0 77.613281 0 50 C 0 22.386719 22.386719 0 50 0 C 77.613281 0 100 22.386719 100 50 C 100 77.613281 77.613281 100 50 100 Z M 50 100 "/>
<path style=" stroke:none;fill-rule:nonzero;fill:rgb(0%,0%,0%);fill-opacity:1;" d="M 49.96875 17.96875 C 31.550781 17.96875 16.546875 31.175781 16.546875 47.632812 C 16.546875 55.714844 20.253906 62.972656 26.199219 68.351562 C 25.300781 71.125 23.292969 73.3125 21.269531 74.996094 C 20.175781 75.898438 19.132812 76.671875 18.300781 77.417969 C 17.890625 77.789062 17.511719 78.164062 17.214844 78.628906 C 16.917969 79.09375 16.652344 79.757812 16.839844 80.46875 L 17.007812 81.011719 L 17.464844 81.304688 C 19.191406 82.296875 21.335938 82.46875 23.648438 82.304688 C 25.960938 82.144531 28.484375 81.613281 30.960938 80.929688 C 35.765625 79.601562 40.277344 77.710938 42.65625 76.667969 C 45.007812 77.15625 47.367188 77.460938 49.84375 77.460938 C 68.261719 77.460938 83.265625 64.253906 83.265625 47.796875 C 83.265625 31.347656 68.390625 17.96875 49.96875 17.96875 Z M 49.96875 20.644531 C 67.109375 20.644531 80.589844 32.960938 80.589844 47.796875 C 80.589844 62.625 66.988281 74.785156 49.84375 74.785156 C 47.398438 74.785156 45.097656 74.546875 42.785156 74.035156 L 42.324219 73.910156 L 41.949219 74.117188 C 39.710938 75.105469 34.988281 77.03125 30.25 78.335938 C 27.878906 78.992188 25.519531 79.492188 23.480469 79.632812 C 22.121094 79.726562 21.277344 79.402344 20.347656 79.171875 C 21.011719 78.605469 21.921875 77.925781 22.980469 77.042969 C 25.308594 75.109375 28.105469 72.421875 29.082031 68.4375 L 29.289062 67.601562 L 28.621094 67.101562 C 22.730469 62.105469 19.222656 55.234375 19.222656 47.632812 C 19.222656 32.804688 32.824219 20.644531 49.96875 20.644531 Z M 48.382812 33.761719 C 47.980469 33.761719 47.839844 33.996094 47.839844 34.261719 L 47.839844 37.773438 C 47.839844 38.175781 48.113281 38.273438 48.382812 38.273438 L 51.554688 38.273438 C 51.957031 38.273438 52.097656 38.039062 52.097656 37.773438 L 52.097656 34.261719 C 52.097656 33.859375 51.824219 33.761719 51.554688 33.761719 Z M 48.507812 43.496094 C 48.105469 43.496094 47.964844 43.773438 47.964844 44.039062 L 47.964844 61.960938 C 47.964844 62.363281 48.242188 62.503906 48.507812 62.503906 L 48.507812 62.628906 L 51.554688 62.628906 C 51.957031 62.628906 52.097656 62.351562 52.097656 62.085938 L 52.097656 44.039062 C 52.097656 43.636719 51.824219 43.496094 51.554688 43.496094 Z M 48.507812 43.496094 "/>
</g>
</svg>
